<svg xmlns="http://www.w3.org/2000/svg" viewBox="0 0 109.5 124.5">
  <path d="M74.7 14.8s-.3 0-.7.1c-.2-.6-.5-1.3-.9-2C71.7 10.8 70 9.8 68 9.8c-.1 0-.3 0-.4.1-.1-.1-.2-.2-.3-.3-1.1-1.2-2.5-1.8-4.2-1.7-3.3.1-6.6 2.5-9.3 6.7-1.9 3-3.3 6.7-3.7 9.6-3.8 1.2-6.5 2-6.5 2-.1 0-.1 0-.2.1l-2 64.3 51.4 9.9L109.5 95 74.7 14.8zM63.8 18c-1.8 2.8-3.6 6.5-4.3 10.3l-9.4 2.9c1.4-7.2 6.7-18.5 13.7-13.2zm-4.1 31.3c.4 5 4.2 6.9 8.3 9 5 2.6 10.6 5.5 11.1 14-.6-1.6-1.3-3.1-2.1-4.4-3.7-6-10.3-9.1-17.3-8.6zm13.1-31.6c3.1-1.4 5.8 1.1 7.3 4.6l-13.5 4.2c1.1-3.6 3.5-7.3 6.2-8.8z" fill="#95BF47"/>
  <path d="M73.3 14.9c-.4 0-.7.1-1.1.1l-3.7-8.7S64.6 15.7 56 18.7c-.4.1-.7.2-1.1.3-1 6.3-1.2 14.2-1.2 14.2l12-3.7 12.4-3.8-4.8-10.8z" fill="#5E8E3E"/>
  <path d="M68.3 6.3c.3 0 .6.1.9.1.2 0 .4.1.6.1-.4 0-.9.1-1.3.1C65.2 6.7 63 8 61.2 9.8c-.4.4-.7.8-1 1.3-.9 1.4-1.6 3-2.1 4.6 3-2.7 6.5-4.5 10.2-4.4z" fill="#5E8E3E"/>
  <path d="M46 21.5L0 124.5l44.3-7.6L46 21.5z" fill="#95BF47"/>
  <path d="M62.5 17.2l-16.5 4.3L44.3 117l28.8-5L62.5 17.2z" fill="#5E8E3E"/>
</svg>
